<?xml version="1.0" standalone="no"?>
<!DOCTYPE svg PUBLIC "-//W3C//DTD SVG 20010904//EN"
 "http://www.w3.org/TR/2001/REC-SVG-20010904/DTD/svg10.dtd">
<svg version="1.0" xmlns="http://www.w3.org/2000/svg"
 width="700.000000pt" height="700.000000pt" viewBox="0 0 700.000000 700.000000"
 preserveAspectRatio="xMidYMid meet">
<metadata>
Created by potrace 1.11, written by Peter Selinger 2001-2013
</metadata>
<g transform="translate(0.000000,700.000000) scale(0.100000,-0.100000)"
fill="#000000" stroke="none">
<path d="M3285 6994 c-771 -62 -1401 -309 -1990 -778 -129 -102 -409 -382
-511 -511 -429 -538 -678 -1129 -761 -1805 -24 -200 -24 -600 0 -800 74 -598
291 -1162 631 -1635 211 -293 518 -600 811 -811 471 -339 1027 -554 1630 -630
195 -25 604 -25 805 -1 679 84 1268 332 1805 761 126 100 417 391 516 516 425
534 673 1123 755 1800 25 200 25 600 1 800 -74 598 -291 1162 -631 1635 -211
293 -518 600 -811 811 -470 338 -1041 559 -1625 629 -129 15 -521 27 -625 19z
m356 -1294 c251 -159 2019 -1392 2012 -1403 -4 -7 -156 -239 -338 -517 -372
-567 -399 -609 -394 -614 3 -2 716 -494 726 -501 1 0 -143 -221 -320 -490
-178 -270 -356 -544 -396 -610 -41 -66 -79 -126 -85 -132 -9 -10 -40 7 -136
75 -303 213 -1175 805 -1184 805 -10 0 -866 -582 -1177 -800 -63 -44 -119 -83
-125 -86 -7 -4 -37 35 -74 96 -35 56 -213 330 -397 610 -184 279 -336 514
-339 521 -4 10 21 32 70 66 87 58 639 440 645 446 2 2 -22 43 -54 91 -32 49
-195 300 -363 558 -167 259 -308 475 -313 481 -7 8 20 32 83 75 250 170 1864
1291 1938 1345 47 35 91 61 98 59 7 -3 62 -36 123 -75z"/>
<path d="M2658 4813 c-466 -318 -847 -581 -848 -586 0 -4 102 -165 227 -358
149 -230 231 -348 240 -345 7 3 282 191 610 417 329 227 605 412 613 412 8 0
289 -185 623 -412 335 -227 610 -411 612 -409 13 14 455 689 455 695 -1 9
-1655 1157 -1673 1161 -7 1 -393 -258 -859 -575z"/>
<path d="M2660 3170 c-465 -318 -845 -584 -844 -591 1 -18 444 -689 454 -689
4 0 282 186 618 414 l611 414 612 -414 c337 -228 615 -414 619 -414 4 0 110
156 235 346 193 293 226 347 214 358 -21 20 -1649 1147 -1663 1151 -6 2 -391
-257 -856 -575z"/>
</g>
</svg>
