<?xml version="1.0" encoding="utf-8"?>
<!-- Generator: Adobe Illustrator 16.0.0, SVG Export Plug-In . SVG Version: 6.00 Build 0)  -->
<!DOCTYPE svg PUBLIC "-//W3C//DTD SVG 1.1//EN" "http://www.w3.org/Graphics/SVG/1.1/DTD/svg11.dtd">
<svg version="1.1" id="Layer_1" xmlns="http://www.w3.org/2000/svg" xmlns:xlink="http://www.w3.org/1999/xlink" x="0px" y="0px"
	 width="477.332px" height="63.962px" viewBox="0 0 477.332 63.962" enable-background="new 0 0 477.332 63.962"
	 xml:space="preserve">
<g>
	<g>
		<path fill="#FFFFFF" d="M69.623,62.366H53.165L43.39,31.445h-0.199l-9.577,30.921H17.157L0,12.692h17.655l8.578,31.419h0.3
			l8.877-31.419h16.458l9.176,31.419h0.2l8.678-31.419H86.88L69.623,62.366z"/>
		<path fill="#FFFFFF" d="M93.466,62.366V12.692h16.358v49.674H93.466z"/>
		<path fill="#FFFFFF" d="M152.018,27.355c-2.593-2.494-6.384-4.489-10.374-4.489c-3.092,0-6.184,1.097-6.184,3.99
			c0,2.793,2.693,3.591,9.077,4.986c7.58,1.696,15.86,5.487,15.86,15.162c0,12.568-11.072,16.958-21.246,16.958
			c-8.08,0-16.458-2.693-21.646-7.682l9.177-9.674c2.892,3.191,7.38,5.585,12.168,5.585c2.693,0,5.886-1.097,5.886-4.289
			c0-3.093-3.093-4.091-9.876-5.687c-6.882-1.596-14.462-5.086-14.462-14.462c0-11.87,11.171-16.658,20.647-16.658
			c7.381,0,15.061,2.394,19.95,6.983L152.018,27.355z"/>
		<path fill="#FFFFFF" d="M219.049,42.017h-36.008c0.498,5.486,5.984,9.377,11.871,9.377c5.186,0,8.777-2.195,10.97-5.188
			l11.372,7.182c-4.687,6.783-12.468,10.574-22.543,10.574c-14.96,0-27.33-9.477-27.33-26.234c0-16.259,11.771-26.632,26.833-26.632
			c14.663,0,24.937,10.075,24.937,27.031C219.148,39.425,219.148,40.82,219.049,42.017z M204.086,31.842
			c0-5.185-3.291-9.474-9.775-9.474c-6.284,0-10.872,4.388-11.271,9.474H204.086z"/>
	</g>
	<g>
		<g>
			<path fill="#FFFFFF" d="M269.9,58.879c-3.486,2.39-7.231,3.647-11.235,3.777c-3.872,0-6.939-1.194-9.199-3.583
				c-2.26-2.388-3.39-5.971-3.39-10.75V18.109h-7.262l-0.098-5.036h7.36V0h6.488v13.074l16.464-0.097v5.132h-16.464v29.149
				c0,6.263,2.324,9.394,6.974,9.394c2.581,0,5.39-0.903,8.427-2.711L269.9,58.879z"/>
			<path fill="#FFFFFF" d="M318.61,18.933c4.132,5.004,6.036,11.734,5.714,20.191h-42.319c0.45,5.423,2.454,9.798,6.005,13.122
				c3.548,3.326,7.941,4.988,13.169,4.988c3.229,0,6.231-0.582,9.007-1.744s5.164-2.808,7.167-4.938l3.68,3.679
				c-2.454,2.648-5.407,4.696-8.861,6.149c-3.455,1.453-7.247,2.18-11.379,2.18c-4.909,0-9.265-1.081-13.073-3.244
				c-3.811-2.163-6.796-5.182-8.957-9.056c-2.164-3.874-3.245-8.294-3.245-13.267c0-4.906,1.081-9.312,3.245-13.22
				c2.161-3.905,5.146-6.938,8.957-9.102c3.809-2.163,8.102-3.245,12.879-3.245C308.475,11.427,314.479,13.93,318.61,18.933z
				 M318.515,34.088c-0.324-5.293-2.083-9.506-5.278-12.638c-3.196-3.131-7.376-4.697-12.541-4.697
				c-5.102,0-9.362,1.583-12.783,4.745c-3.423,3.164-5.391,7.36-5.907,12.59H318.515z"/>
			<path fill="#FFFFFF" d="M369.741,62.366l-0.097-8.522c-2.001,2.971-4.616,5.182-7.844,6.635c-3.23,1.452-6.94,2.179-11.136,2.179
				c-3.424,0-6.44-0.661-9.056-1.985c-2.613-1.322-4.633-3.147-6.052-5.473c-1.423-2.324-2.131-4.938-2.131-7.844
				c0-4.389,1.693-7.844,5.082-10.361c3.391-2.518,8.054-3.777,13.996-3.777h17.044v-3.874c0-4.002-1.195-7.101-3.584-9.296
				c-2.39-2.194-5.876-3.292-10.458-3.292c-5.424,0-10.88,2.034-16.366,6.1l-2.905-4.454c3.422-2.389,6.681-4.147,9.78-5.279
				c3.099-1.128,6.648-1.694,10.652-1.694c6.133,0,10.879,1.535,14.234,4.601c3.357,3.066,5.069,7.311,5.135,12.734l0.096,33.604
				H369.741z M363.302,54.085c3.131-2.098,5.244-5.051,6.343-8.861v-6.972h-16.365c-4.454,0-7.845,0.743-10.169,2.228
				c-2.324,1.486-3.486,3.713-3.486,6.682c0,3.035,1.112,5.471,3.341,7.312c2.228,1.841,5.182,2.761,8.862,2.761
				C356.346,57.234,360.17,56.185,363.302,54.085z"/>
			<path fill="#FFFFFF" d="M472.296,16.657c3.356,3.486,5.036,8.328,5.036,14.526v31.183h-6.585V32.732
				c0-4.841-1.308-8.601-3.923-11.281c-2.614-2.679-6.215-4.019-10.797-4.019c-5.424,0.13-9.669,2.001-12.735,5.617
				c-3.067,3.615-4.601,8.393-4.601,14.332v24.985h-6.584V32.732c0-4.841-1.308-8.601-3.922-11.281
				c-2.615-2.679-6.216-4.019-10.799-4.019c-5.422,0.13-9.685,2.001-12.782,5.617c-3.1,3.615-4.649,8.393-4.649,14.332v24.985
				h-6.488V11.621h6.488v11.912c1.68-4.002,4.181-7.005,7.505-9.006c3.325-2.001,7.376-3.035,12.154-3.1
				c4.841,0,8.861,1.195,12.057,3.583c3.196,2.389,5.311,5.747,6.344,10.072c1.55-4.518,4.05-7.908,7.505-10.168
				c3.452-2.259,7.699-3.422,12.734-3.487C464.259,11.427,468.938,13.171,472.296,16.657z"/>
		</g>
	</g>
</g>
</svg>
